<svg baseProfile="full" height="200" version="1.1" width="200" xmlns="http://www.w3.org/2000/svg" xmlns:ev="http://www.w3.org/2001/xml-events" xmlns:xlink="http://www.w3.org/1999/xlink"><defs><style type="text/css"><![CDATA[.background path {fill: #808080; fill-opacity: 0}.background path:nth-child(odd) {fill-opacity: .1}.x-regions rect {fill: yellow; stroke: black; opacity: 0.5}.axes {font-size: 14px}.x-axis .tick .lab {font-weight: bold; dominant-baseline: hanging}.axes, .tree {font-size: 14px; text-anchor: middle}.axes line, .edge {stroke: black; fill: none}.axes .ax-skip {stroke-dasharray: 4}.y-axis .grid {stroke: #FAFAFA}.node > .sym {fill: black; stroke: none}.site > .sym {stroke: black}.mut text {fill: red; font-style: italic}.mut.extra text {fill: hotpink}.mut line {fill: none; stroke: none}.mut .sym {fill: none; stroke: red}.mut.extra .sym {stroke: hotpink}.node .mut .sym {stroke-width: 1.5px}.tree text, .tree-sequence text {dominant-baseline: central}.plotbox .lab.lft {text-anchor: end}.plotbox .lab.rgt {text-anchor: start}.polytomy line {stroke: black; stroke-dasharray: 1px, 1px}.polytomy text {paint-order:stroke;stroke-width:0.3em;stroke:white}]]></style></defs><g class="tree t0"><g class="plotbox"><g class="c2 node n58 p0 root" transform="translate(122.437 26.8)"><g class="a58 c2 node n56 p0" transform="translate(40.0625 8.03853)"><g class="a56 c2 node n46 p0" transform="translate(10.8333 106.694)"><g class="a46 i11 leaf node n22 p24 sample" transform="translate(4 26.6674)"><path class="edge" d="M 0 0 V -26.6674 H -4"/><rect class="sym" height="6" width="6" x="-3" y="-3"/><text class="lab" transform="translate(0 11)">22</text></g><g class="a46 c2 node n44 p0" transform="translate(-4 4.05189)"><g class="a44 i5 leaf node n10 p18 sample" transform="translate(-2.66667 22.6155)"><path class="edge" d="M 0 0 V -22.6155 H 2.66667"/><rect class="sym" height="6" width="6" x="-3" y="-3"/><text class="lab" transform="translate(0 11)">10</text></g><g class="a44 i10 leaf node n21 p23 sample" transform="translate(2.66667 22.6155)"><path class="edge" d="M 0 0 V -22.6155 H -2.66667"/><rect class="sym" height="6" width="6" x="-3" y="-3"/><text class="lab" transform="translate(0 11)">21</text></g><path class="edge" d="M 0 0 V -4.05189 H 4"/><circle class="sym" cx="0" cy="0" r="3"/><text class="lab lft" transform="translate(-3 -7)">44</text></g><path class="edge" d="M 0 0 V -106.694 H -10.8333"/><circle class="sym" cx="0" cy="0" r="3"/><text class="lab rgt" transform="translate(3 -7)">46</text></g><g class="a56 c2 node n53 p0" transform="translate(-10.8333 84.7696)"><g class="a53 c2 node n40 p0" transform="translate(-7 28.5514)"><g class="a40 i6 leaf node n13 p19 sample" transform="translate(6 20.0405)"><path class="edge" d="M 0 0 V -20.0405 H -6"/><rect class="sym" height="6" width="6" x="-3" y="-3"/><text class="lab" transform="translate(0 11)">13</text></g><g class="a40 c2 node n39 p0" transform="translate(-6 0.505323)"><g class="a39 i3 leaf node n7 p16 sample" transform="translate(-4 19.5352)"><path class="edge" d="M 0 0 V -19.5352 H 4"/><rect class="sym" height="6" width="6" x="-3" y="-3"/><text class="lab" transform="translate(0 11)">7</text></g><g class="a39 c2 node n38 p0" transform="translate(4 1.63108)"><g class="a38 i8 leaf node n16 p21 sample" transform="translate(-2.66667 17.9041)"><path class="edge" d="M 0 0 V -17.9041 H 2.66667"/><rect class="sym" height="6" width="6" x="-3" y="-3"/><text class="lab" transform="translate(0 11)">16</text></g><g class="a38 i8 leaf node n17 p21 sample" transform="translate(2.66667 17.9041)"><path class="edge" d="M 0 0 V -17.9041 H -2.66667"/><rect class="sym" height="6" width="6" x="-3" y="-3"/><text class="lab" transform="translate(0 11)">17</text></g><path class="edge" d="M 0 0 V -1.63108 H -4"/><circle class="sym" cx="0" cy="0" r="3"/><text class="lab rgt" transform="translate(3 -7)">38</text></g><path class="edge" d="M 0 0 V -0.505323 H 6"/><circle class="sym" cx="0" cy="0" r="3"/><text class="lab lft" transform="translate(-3 -7)">39</text></g><path class="edge" d="M 0 0 V -28.5514 H 7"/><circle class="sym" cx="0" cy="0" r="3"/><text class="lab lft" transform="translate(-3 -7)">40</text></g><g class="a53 c2 node n49 p0" transform="translate(7 19.883)"><g class="a49 i7 leaf node n14 p20 sample" transform="translate(-2.66667 28.7089)"><path class="edge" d="M 0 0 V -28.7089 H 2.66667"/><rect class="sym" height="6" width="6" x="-3" y="-3"/><text class="lab" transform="translate(0 11)">14</text></g><g class="a49 i12 leaf node n24 p25 sample" transform="translate(2.66667 28.7089)"><path class="edge" d="M 0 0 V -28.7089 H -2.66667"/><rect class="sym" height="6" width="6" x="-3" y="-3"/><text class="lab" transform="translate(0 11)">24</text></g><path class="edge" d="M 0 0 V -19.883 H -7"/><circle class="sym" cx="0" cy="0" r="3"/><text class="lab rgt" transform="translate(3 -7)">49</text></g><path class="edge" d="M 0 0 V -84.7696 H 10.8333"/><circle class="sym" cx="0" cy="0" r="3"/><text class="lab lft" transform="translate(-3 -7)">53</text></g><path class="edge" d="M 0 0 V -8.03853 H -40.0625"/><circle class="sym" cx="0" cy="0" r="3"/><text class="lab rgt" transform="translate(3 -7)">56</text></g><g class="a58 c2 node n57 p0" transform="translate(-40.0625 6.96364)"><g class="a57 c2 node n54 p0" transform="translate(26.7083 81.7768)"><g class="a54 c2 node n50 p0" transform="translate(13.5833 23.3199)"><g class="a50 i9 leaf node n19 p22 sample" transform="translate(-4 29.3396)"><path class="edge" d="M 0 0 V -29.3396 H 4"/><rect class="sym" height="6" width="6" x="-3" y="-3"/><text class="lab" transform="translate(0 11)">19</text></g><g class="a50 c2 node n35 p2" transform="translate(4 13.2694)"><g class="a35 i13 leaf node n27 p26 sample" transform="translate(-2.66667 16.0702)"><path class="edge" d="M 0 0 V -16.0702 H 2.66667"/><rect class="sym" height="6" width="6" x="-3" y="-3"/><text class="lab" transform="translate(0 11)">27</text></g><g class="a35 i14 leaf node n29 p27 sample" transform="translate(2.66667 16.0702)"><path class="edge" d="M 0 0 V -16.0702 H -2.66667"/><rect class="sym" height="6" width="6" x="-3" y="-3"/><text class="lab" transform="translate(0 11)">29</text></g><path class="edge" d="M 0 0 V -13.2694 H -4"/><circle class="sym" cx="0" cy="0" r="3"/><text class="lab rgt" transform="translate(3 -7)">35</text></g><path class="edge" d="M 0 0 V -23.3199 H -13.5833"/><circle class="sym" cx="0" cy="0" r="3"/><text class="lab rgt" transform="translate(3 -7)">50</text></g><g class="a54 c2 node n51 p0" transform="translate(-13.5833 22.2812)"><g class="a51 c2 node n45 p0" transform="translate(11.1667 5.71845)"><g class="a45 i6 leaf node n12 p19 sample" transform="translate(-4 24.6599)"><path class="edge" d="M 0 0 V -24.6599 H 4"/><rect class="sym" height="6" width="6" x="-3" y="-3"/><text class="lab" transform="translate(0 11)">12</text></g><g class="a45 c2 node n36 p2" transform="translate(4 8.53948)"><g class="a36 i13 leaf node n26 p26 sample" transform="translate(-2.66667 16.1204)"><path class="edge" d="M 0 0 V -16.1204 H 2.66667"/><rect class="sym" height="6" width="6" x="-3" y="-3"/><text class="lab" transform="translate(0 11)">26</text></g><g class="a36 i14 leaf node n28 p27 sample" transform="translate(2.66667 16.1204)"><path class="edge" d="M 0 0 V -16.1204 H -2.66667"/><rect class="sym" height="6" width="6" x="-3" y="-3"/><text class="lab" transform="translate(0 11)">28</text></g><path class="edge" d="M 0 0 V -8.53948 H -4"/><circle class="sym" cx="0" cy="0" r="3"/><text class="lab rgt" transform="translate(3 -7)">36</text></g><path class="edge" d="M 0 0 V -5.71845 H -11.1667"/><circle class="sym" cx="0" cy="0" r="3"/><text class="lab rgt" transform="translate(3 -7)">45</text></g><g class="a51 c2 node n48 p0" transform="translate(-11.1667 2.38009)"><g class="a48 i5 leaf node n11 p18 sample" transform="translate(-8.33333 27.9983)"><path class="edge" d="M 0 0 V -27.9983 H 8.33333"/><rect class="sym" height="6" width="6" x="-3" y="-3"/><text class="lab" transform="translate(0 11)">11</text></g><g class="a48 c2 node n41 p0" transform="translate(8.33333 7.81025)"><g class="a41 i10 leaf node n20 p23 sample" transform="translate(4.66667 20.188)"><path class="edge" d="M 0 0 V -20.188 H -4.66667"/><rect class="sym" height="6" width="6" x="-3" y="-3"/><text class="lab" transform="translate(0 11)">20</text></g><g class="a41 c2 node n37 p2" transform="translate(-4.66667 3.44442)"><g class="a37 i12 leaf node n25 p25 sample" transform="translate(4 16.7436)"><path class="edge" d="M 0 0 V -16.7436 H -4"/><rect class="sym" height="6" width="6" x="-3" y="-3"/><text class="lab" transform="translate(0 11)">25</text></g><g class="a37 c2 node n31 p2" transform="translate(-4 2.77429)"><g class="a31 i7 leaf node n15 p20 sample" transform="translate(-2.66667 13.9693)"><path class="edge" d="M 0 0 V -13.9693 H 2.66667"/><rect class="sym" height="6" width="6" x="-3" y="-3"/><text class="lab" transform="translate(0 11)">15</text></g><g class="a31 i9 leaf node n18 p22 sample" transform="translate(2.66667 13.9693)"><path class="edge" d="M 0 0 V -13.9693 H -2.66667"/><rect class="sym" height="6" width="6" x="-3" y="-3"/><text class="lab" transform="translate(0 11)">18</text></g><path class="edge" d="M 0 0 V -2.77429 H 4"/><circle class="sym" cx="0" cy="0" r="3"/><text class="lab lft" transform="translate(-3 -7)">31</text></g><path class="edge" d="M 0 0 V -3.44442 H 4.66667"/><circle class="sym" cx="0" cy="0" r="3"/><text class="lab lft" transform="translate(-3 -7)">37</text></g><path class="edge" d="M 0 0 V -7.81025 H -8.33333"/><circle class="sym" cx="0" cy="0" r="3"/><text class="lab rgt" transform="translate(3 -7)">41</text></g><path class="edge" d="M 0 0 V -2.38009 H 11.1667"/><circle class="sym" cx="0" cy="0" r="3"/><text class="lab lft" transform="translate(-3 -7)">48</text></g><path class="edge" d="M 0 0 V -22.2812 H 13.5833"/><circle class="sym" cx="0" cy="0" r="3"/><text class="lab lft" transform="translate(-3 -7)">51</text></g><path class="edge" d="M 0 0 V -81.7768 H -26.7083"/><circle class="sym" cx="0" cy="0" r="3"/><text class="lab rgt" transform="translate(3 -7)">54</text></g><g class="a57 c2 node n55 p0" transform="translate(-26.7083 65.1389)"><g class="a55 i2 leaf node n4 p15 sample" transform="translate(15 69.2975)"><path class="edge" d="M 0 0 V -69.2975 H -15"/><rect class="sym" height="6" width="6" x="-3" y="-3"/><text class="lab" transform="translate(0 11)">4</text></g><g class="a55 c2 node n52 p0" transform="translate(-15 36.0703)"><g class="a52 c2 node n43 p0" transform="translate(13.3333 12.7945)"><g class="a43 c2 node n34 p1" transform="translate(7.33333 4.57985)"><g class="a34 i1 leaf node n3 p14 sample" transform="translate(4 15.8529)"><path class="edge" d="M 0 0 V -15.8529 H -4"/><rect class="sym" height="6" width="6" x="-3" y="-3"/><text class="lab" transform="translate(0 11)">3</text></g><g class="a34 c2 node n33 p1" transform="translate(-4 0.731396)"><g class="a33 i1 leaf node n2 p14 sample" transform="translate(-2.66667 15.1215)"><path class="edge" d="M 0 0 V -15.1215 H 2.66667"/><rect class="sym" height="6" width="6" x="-3" y="-3"/><text class="lab" transform="translate(0 11)">2</text></g><g class="a33 i2 leaf node n5 p15 sample" transform="translate(2.66667 15.1215)"><path class="edge" d="M 0 0 V -15.1215 H -2.66667"/><rect class="sym" height="6" width="6" x="-3" y="-3"/><text class="lab" transform="translate(0 11)">5</text></g><path class="edge" d="M 0 0 V -0.731396 H 4"/><circle class="sym" cx="0" cy="0" r="3"/><text class="lab lft" transform="translate(-3 -7)">33</text></g><path class="edge" d="M 0 0 V -4.57985 H -7.33333"/><circle class="sym" cx="0" cy="0" r="3"/><text class="lab rgt" transform="translate(3 -7)">34</text></g><g class="a43 c2 node n42 p0" transform="translate(-7.33333 0.0576301)"><g class="a42 i0 leaf node n1 p13 sample" transform="translate(-2.66667 20.3751)"><path class="edge" d="M 0 0 V -20.3751 H 2.66667"/><rect class="sym" height="6" width="6" x="-3" y="-3"/><text class="lab" transform="translate(0 11)">1</text></g><g class="a42 i11 leaf node n23 p24 sample" transform="translate(2.66667 20.3751)"><path class="edge" d="M 0 0 V -20.3751 H -2.66667"/><rect class="sym" height="6" width="6" x="-3" y="-3"/><text class="lab" transform="translate(0 11)">23</text></g><path class="edge" d="M 0 0 V -0.0576301 H 7.33333"/><circle class="sym" cx="0" cy="0" r="3"/><text class="lab lft" transform="translate(-3 -7)">42</text></g><path class="edge" d="M 0 0 V -12.7945 H -13.3333"/><circle class="sym" cx="0" cy="0" r="3"/><text class="lab rgt" transform="translate(3 -7)">43</text></g><g class="a52 c2 node n47 p0" transform="translate(-13.3333 6.39514)"><g class="a47 i0 leaf node n0 p13 sample" transform="translate(-4.66667 26.8321)"><path class="edge" d="M 0 0 V -26.8321 H 4.66667"/><rect class="sym" height="6" width="6" x="-3" y="-3"/><text class="lab" transform="translate(0 11)">0</text></g><g class="a47 c2 node n32 p1" transform="translate(4.66667 12.3928)"><g class="a32 i3 leaf node n6 p16 sample" transform="translate(-4 14.4392)"><path class="edge" d="M 0 0 V -14.4392 H 4"/><rect class="sym" height="6" width="6" x="-3" y="-3"/><text class="lab" transform="translate(0 11)">6</text></g><g class="a32 c2 node n30 p17" transform="translate(4 14.4196)"><g class="a30 i4 leaf node n8 p17 sample" transform="translate(-2.66667 0.0196717)"><path class="edge" d="M 0 0 V -0.0196717 H 2.66667"/><rect class="sym" height="6" width="6" x="-3" y="-3"/><text class="lab" transform="translate(0 11)">8</text></g><g class="a30 i4 leaf node n9 p17 sample" transform="translate(2.66667 0.0196717)"><path class="edge" d="M 0 0 V -0.0196717 H -2.66667"/><rect class="sym" height="6" width="6" x="-3" y="-3"/><text class="lab" transform="translate(0 11)">9</text></g><path class="edge" d="M 0 0 V -14.4196 H -4"/><circle class="sym" cx="0" cy="0" r="3"/><text class="lab rgt" transform="translate(3 -7)">30</text></g><path class="edge" d="M 0 0 V -12.3928 H -4.66667"/><circle class="sym" cx="0" cy="0" r="3"/><text class="lab rgt" transform="translate(3 -7)">32</text></g><path class="edge" d="M 0 0 V -6.39514 H 13.3333"/><circle class="sym" cx="0" cy="0" r="3"/><text class="lab lft" transform="translate(-3 -7)">47</text></g><path class="edge" d="M 0 0 V -36.0703 H 15"/><circle class="sym" cx="0" cy="0" r="3"/><text class="lab lft" transform="translate(-3 -7)">52</text></g><path class="edge" d="M 0 0 V -65.1389 H 26.7083"/><circle class="sym" cx="0" cy="0" r="3"/><text class="lab lft" transform="translate(-3 -7)">55</text></g><path class="edge" d="M 0 0 V -6.96364 H 40.0625"/><circle class="sym" cx="0" cy="0" r="3"/><text class="lab lft" transform="translate(-3 -7)">57</text></g><circle class="sym" cx="0" cy="0" r="3"/><text class="lab" transform="translate(0 -11)">58</text></g></g></g></svg>